<mxfile host="app.diagrams.net" modified="2023-10-03T10:11:09.956Z" agent="Mozilla/5.0 (Windows NT 10.0; Win64; x64) AppleWebKit/537.36 (KHTML, like Gecko) Chrome/117.0.0.0 Safari/537.36" etag="FSLM1G1e-1ePIOOjnmnE" version="22.0.1" type="github">
  <diagram name="Page-1" id="VamGIzNKpwc7s970Tre1">
    <mxGraphModel dx="954" dy="623" grid="1" gridSize="10" guides="1" tooltips="1" connect="1" arrows="1" fold="1" page="1" pageScale="1" pageWidth="850" pageHeight="1100" math="0" shadow="0">
      <root>
        <mxCell id="0" />
        <mxCell id="1" parent="0" />
        <mxCell id="4E5iEo_VykhNrtmiLAlS-1" value="TREE" style="rounded=1;whiteSpace=wrap;html=1;" vertex="1" parent="1">
          <mxGeometry x="320" y="20" width="120" height="60" as="geometry" />
        </mxCell>
        <mxCell id="4E5iEo_VykhNrtmiLAlS-2" value="fibrous&lt;br&gt;(berserat)" style="rounded=1;whiteSpace=wrap;html=1;" vertex="1" parent="1">
          <mxGeometry x="170" y="420" width="120" height="60" as="geometry" />
        </mxCell>
        <mxCell id="4E5iEo_VykhNrtmiLAlS-3" value="have" style="rounded=1;whiteSpace=wrap;html=1;" vertex="1" parent="1">
          <mxGeometry x="430" y="210" width="120" height="60" as="geometry" />
        </mxCell>
        <mxCell id="4E5iEo_VykhNrtmiLAlS-4" value="respiratory&lt;br&gt;(akar napas)" style="rounded=1;whiteSpace=wrap;html=1;" vertex="1" parent="1">
          <mxGeometry x="170" y="210" width="120" height="60" as="geometry" />
        </mxCell>
        <mxCell id="4E5iEo_VykhNrtmiLAlS-5" value="hanging&lt;br&gt;(menggantung)" style="rounded=1;whiteSpace=wrap;html=1;" vertex="1" parent="1">
          <mxGeometry x="170" y="280" width="120" height="60" as="geometry" />
        </mxCell>
        <mxCell id="4E5iEo_VykhNrtmiLAlS-6" value="taproot&lt;br&gt;(akar tunggang)" style="rounded=1;whiteSpace=wrap;html=1;" vertex="1" parent="1">
          <mxGeometry x="170" y="350" width="120" height="60" as="geometry" />
        </mxCell>
        <mxCell id="4E5iEo_VykhNrtmiLAlS-7" value="does not have" style="rounded=1;whiteSpace=wrap;html=1;" vertex="1" parent="1">
          <mxGeometry x="430" y="280" width="120" height="60" as="geometry" />
        </mxCell>
        <mxCell id="4E5iEo_VykhNrtmiLAlS-8" value="cambium" style="rounded=1;whiteSpace=wrap;html=1;" vertex="1" parent="1">
          <mxGeometry x="300" y="210" width="120" height="60" as="geometry" />
        </mxCell>
        <mxCell id="4E5iEo_VykhNrtmiLAlS-9" value="reddish" style="rounded=1;whiteSpace=wrap;html=1;" vertex="1" parent="1">
          <mxGeometry x="40" y="420" width="120" height="60" as="geometry" />
        </mxCell>
        <mxCell id="4E5iEo_VykhNrtmiLAlS-10" value="FRUIT" style="rounded=1;whiteSpace=wrap;html=1;" vertex="1" parent="1">
          <mxGeometry x="430" y="140" width="120" height="60" as="geometry" />
        </mxCell>
        <mxCell id="4E5iEo_VykhNrtmiLAlS-11" value="LEAF" style="rounded=1;whiteSpace=wrap;html=1;" vertex="1" parent="1">
          <mxGeometry x="40" y="140" width="120" height="60" as="geometry" />
        </mxCell>
        <mxCell id="4E5iEo_VykhNrtmiLAlS-12" value="TRUNK" style="rounded=1;whiteSpace=wrap;html=1;" vertex="1" parent="1">
          <mxGeometry x="300" y="140" width="120" height="60" as="geometry" />
        </mxCell>
        <mxCell id="4E5iEo_VykhNrtmiLAlS-13" value="WHERE IT BE" style="rounded=1;whiteSpace=wrap;html=1;" vertex="1" parent="1">
          <mxGeometry x="560" y="140" width="120" height="60" as="geometry" />
        </mxCell>
        <mxCell id="4E5iEo_VykhNrtmiLAlS-14" value="ROOT" style="rounded=1;whiteSpace=wrap;html=1;" vertex="1" parent="1">
          <mxGeometry x="170" y="140" width="120" height="60" as="geometry" />
        </mxCell>
        <mxCell id="4E5iEo_VykhNrtmiLAlS-15" value="water" style="rounded=1;whiteSpace=wrap;html=1;" vertex="1" parent="1">
          <mxGeometry x="560" y="280" width="120" height="60" as="geometry" />
        </mxCell>
        <mxCell id="4E5iEo_VykhNrtmiLAlS-16" value="land" style="rounded=1;whiteSpace=wrap;html=1;" vertex="1" parent="1">
          <mxGeometry x="560" y="210" width="120" height="60" as="geometry" />
        </mxCell>
        <mxCell id="4E5iEo_VykhNrtmiLAlS-18" value="edible" style="rounded=1;whiteSpace=wrap;html=1;" vertex="1" parent="1">
          <mxGeometry x="430" y="350" width="120" height="60" as="geometry" />
        </mxCell>
        <mxCell id="4E5iEo_VykhNrtmiLAlS-19" value="yellowish" style="rounded=1;whiteSpace=wrap;html=1;" vertex="1" parent="1">
          <mxGeometry x="40" y="350" width="120" height="60" as="geometry" />
        </mxCell>
        <mxCell id="4E5iEo_VykhNrtmiLAlS-20" value="pink" style="rounded=1;whiteSpace=wrap;html=1;" vertex="1" parent="1">
          <mxGeometry x="40" y="280" width="120" height="60" as="geometry" />
        </mxCell>
        <mxCell id="4E5iEo_VykhNrtmiLAlS-21" value="green" style="rounded=1;whiteSpace=wrap;html=1;" vertex="1" parent="1">
          <mxGeometry x="40" y="210" width="120" height="60" as="geometry" />
        </mxCell>
        <mxCell id="4E5iEo_VykhNrtmiLAlS-22" value="single-branch" style="rounded=1;whiteSpace=wrap;html=1;" vertex="1" parent="1">
          <mxGeometry x="300" y="280" width="120" height="60" as="geometry" />
        </mxCell>
        <mxCell id="4E5iEo_VykhNrtmiLAlS-23" value="smaller than a man" style="rounded=1;whiteSpace=wrap;html=1;" vertex="1" parent="1">
          <mxGeometry x="690" y="280" width="120" height="60" as="geometry" />
        </mxCell>
        <mxCell id="4E5iEo_VykhNrtmiLAlS-24" value="not edible" style="rounded=1;whiteSpace=wrap;html=1;" vertex="1" parent="1">
          <mxGeometry x="430" y="420" width="120" height="60" as="geometry" />
        </mxCell>
        <mxCell id="4E5iEo_VykhNrtmiLAlS-25" value="bigger than a man" style="rounded=1;whiteSpace=wrap;html=1;" vertex="1" parent="1">
          <mxGeometry x="690" y="210" width="120" height="60" as="geometry" />
        </mxCell>
        <mxCell id="4E5iEo_VykhNrtmiLAlS-26" value="SIZE" style="rounded=1;whiteSpace=wrap;html=1;" vertex="1" parent="1">
          <mxGeometry x="690" y="140" width="120" height="60" as="geometry" />
        </mxCell>
        <mxCell id="4E5iEo_VykhNrtmiLAlS-27" value="WHEN IT LIVES" style="rounded=1;whiteSpace=wrap;html=1;" vertex="1" parent="1">
          <mxGeometry x="170" y="540" width="120" height="60" as="geometry" />
        </mxCell>
        <mxCell id="4E5iEo_VykhNrtmiLAlS-28" value="many branches" style="rounded=1;whiteSpace=wrap;html=1;" vertex="1" parent="1">
          <mxGeometry x="300" y="350" width="120" height="60" as="geometry" />
        </mxCell>
        <mxCell id="4E5iEo_VykhNrtmiLAlS-29" value="in rains" style="rounded=1;whiteSpace=wrap;html=1;" vertex="1" parent="1">
          <mxGeometry x="170" y="890" width="120" height="60" as="geometry" />
        </mxCell>
        <mxCell id="4E5iEo_VykhNrtmiLAlS-30" value="in winter" style="rounded=1;whiteSpace=wrap;html=1;" vertex="1" parent="1">
          <mxGeometry x="170" y="820" width="120" height="60" as="geometry" />
        </mxCell>
        <mxCell id="4E5iEo_VykhNrtmiLAlS-31" value="in autumn" style="rounded=1;whiteSpace=wrap;html=1;" vertex="1" parent="1">
          <mxGeometry x="170" y="750" width="120" height="60" as="geometry" />
        </mxCell>
        <mxCell id="4E5iEo_VykhNrtmiLAlS-32" value="in summer/dry/hot" style="rounded=1;whiteSpace=wrap;html=1;" vertex="1" parent="1">
          <mxGeometry x="170" y="680" width="120" height="60" as="geometry" />
        </mxCell>
        <mxCell id="4E5iEo_VykhNrtmiLAlS-33" value="in spring" style="rounded=1;whiteSpace=wrap;html=1;" vertex="1" parent="1">
          <mxGeometry x="170" y="610" width="120" height="60" as="geometry" />
        </mxCell>
        <mxCell id="4E5iEo_VykhNrtmiLAlS-34" value="both" style="rounded=1;whiteSpace=wrap;html=1;" vertex="1" parent="1">
          <mxGeometry x="560" y="360" width="120" height="60" as="geometry" />
        </mxCell>
      </root>
    </mxGraphModel>
  </diagram>
</mxfile>
